# xmcd CD database file
#
# Track frame offsets:
#	182
#	19212
#	36870
#	65807
#	87662
#	117700
#	141112
#	156277
#	179607
#	206687
#	223532
#	258332
#	274652
#
# Disc length: 3990 seconds
#
# Revision: 2
# Processed by: cddbd v1.5PL3 Copyright (c) Steve Scherf et al.
# Submitted via: CDex 1.51
#
DISCID=cf0f940d
DTITLE=Various Artist - California Dreamin' Jazz Exotica
DYEAR=1999
DGENRE=Jazz
TTITLE0=Tom Scott - Honeysuckle Breeze
TTITLE1=Gabor Szabo - Sophisticated Wheels
TTITLE2=Bill Plummer and The Cosmic Brotherhood - Song Plum
TTITLE3=Emil Richards -& The Microtonal Blues Band - Bliss
TTITLE4=Chico Hamilton - Conquistadores
TTITLE5=Dave Mackay and Vicki Hamilton - Blues For Hari
TTITLE6=Tom Scott - Today
TTITLE7=Gabor Szabo - Gypsy Queen
TTITLE8=Bill Plummer and The Cosmic Brotherhood - Journey To The East
TTITLE9=Gabor Szabo - Raga Doll
TTITLE10=Gary McFarland - Sandpiper
TTITLE11=Bill Plummer and The Cosmic Brotherhood - The Look of Love
TTITLE12=Gabor Szabo - Spellbinder
EXTD=YEAR: 1999
EXTT0=
EXTT1=
EXTT2=
EXTT3=
EXTT4=
EXTT5=
EXTT6=
EXTT7=
EXTT8=
EXTT9=
EXTT10=
EXTT11=
EXTT12=
PLAYORDER=
